<mxfile host="Electron" modified="2024-08-18T12:25:55.263Z" agent="Mozilla/5.0 (Windows NT 10.0; Win64; x64) AppleWebKit/537.36 (KHTML, like Gecko) draw.io/24.2.5 Chrome/120.0.6099.109 Electron/28.1.0 Safari/537.36" etag="so2KxsU0EvSU-LyV0YdW" version="24.2.5" type="device">
  <diagram name="第 1 页" id="HA_GsoaHUQiNFyU87Xml">
    <mxGraphModel dx="581" dy="392" grid="0" gridSize="10" guides="1" tooltips="1" connect="1" arrows="1" fold="1" page="1" pageScale="1" pageWidth="1169" pageHeight="1654" math="0" shadow="0">
      <root>
        <mxCell id="0" />
        <mxCell id="1" parent="0" />
        <mxCell id="vFo_zj0-MyukSbz_UyMY-12" style="edgeStyle=orthogonalEdgeStyle;rounded=0;orthogonalLoop=1;jettySize=auto;html=1;exitX=1;exitY=0.5;exitDx=0;exitDy=0;entryX=0;entryY=0.5;entryDx=0;entryDy=0;endArrow=none;endFill=0;" edge="1" parent="1" source="vFo_zj0-MyukSbz_UyMY-1" target="vFo_zj0-MyukSbz_UyMY-2">
          <mxGeometry relative="1" as="geometry" />
        </mxCell>
        <mxCell id="vFo_zj0-MyukSbz_UyMY-13" style="edgeStyle=orthogonalEdgeStyle;rounded=0;orthogonalLoop=1;jettySize=auto;html=1;exitX=1;exitY=0.5;exitDx=0;exitDy=0;entryX=0;entryY=0.5;entryDx=0;entryDy=0;endArrow=none;endFill=0;" edge="1" parent="1" source="vFo_zj0-MyukSbz_UyMY-1" target="vFo_zj0-MyukSbz_UyMY-3">
          <mxGeometry relative="1" as="geometry" />
        </mxCell>
        <mxCell id="vFo_zj0-MyukSbz_UyMY-14" style="edgeStyle=orthogonalEdgeStyle;rounded=0;orthogonalLoop=1;jettySize=auto;html=1;exitX=1;exitY=0.5;exitDx=0;exitDy=0;entryX=0;entryY=0.5;entryDx=0;entryDy=0;endArrow=none;endFill=0;" edge="1" parent="1" source="vFo_zj0-MyukSbz_UyMY-1" target="vFo_zj0-MyukSbz_UyMY-4">
          <mxGeometry relative="1" as="geometry" />
        </mxCell>
        <mxCell id="vFo_zj0-MyukSbz_UyMY-15" style="edgeStyle=orthogonalEdgeStyle;rounded=0;orthogonalLoop=1;jettySize=auto;html=1;exitX=1;exitY=0.5;exitDx=0;exitDy=0;entryX=0;entryY=0.5;entryDx=0;entryDy=0;endArrow=none;endFill=0;" edge="1" parent="1" source="vFo_zj0-MyukSbz_UyMY-1" target="vFo_zj0-MyukSbz_UyMY-5">
          <mxGeometry relative="1" as="geometry" />
        </mxCell>
        <mxCell id="vFo_zj0-MyukSbz_UyMY-16" style="edgeStyle=orthogonalEdgeStyle;rounded=0;orthogonalLoop=1;jettySize=auto;html=1;exitX=1;exitY=0.5;exitDx=0;exitDy=0;entryX=0;entryY=0.5;entryDx=0;entryDy=0;endArrow=none;endFill=0;" edge="1" parent="1" source="vFo_zj0-MyukSbz_UyMY-1" target="vFo_zj0-MyukSbz_UyMY-6">
          <mxGeometry relative="1" as="geometry" />
        </mxCell>
        <mxCell id="vFo_zj0-MyukSbz_UyMY-17" style="edgeStyle=orthogonalEdgeStyle;rounded=0;orthogonalLoop=1;jettySize=auto;html=1;exitX=1;exitY=0.5;exitDx=0;exitDy=0;entryX=0;entryY=0.5;entryDx=0;entryDy=0;endArrow=none;endFill=0;" edge="1" parent="1" source="vFo_zj0-MyukSbz_UyMY-1" target="vFo_zj0-MyukSbz_UyMY-7">
          <mxGeometry relative="1" as="geometry" />
        </mxCell>
        <mxCell id="vFo_zj0-MyukSbz_UyMY-18" style="edgeStyle=orthogonalEdgeStyle;rounded=0;orthogonalLoop=1;jettySize=auto;html=1;exitX=1;exitY=0.5;exitDx=0;exitDy=0;entryX=0;entryY=0.5;entryDx=0;entryDy=0;endArrow=none;endFill=0;" edge="1" parent="1" source="vFo_zj0-MyukSbz_UyMY-1" target="vFo_zj0-MyukSbz_UyMY-8">
          <mxGeometry relative="1" as="geometry" />
        </mxCell>
        <mxCell id="vFo_zj0-MyukSbz_UyMY-19" style="edgeStyle=orthogonalEdgeStyle;rounded=0;orthogonalLoop=1;jettySize=auto;html=1;exitX=1;exitY=0.5;exitDx=0;exitDy=0;entryX=0;entryY=0.5;entryDx=0;entryDy=0;endArrow=none;endFill=0;" edge="1" parent="1" source="vFo_zj0-MyukSbz_UyMY-1" target="vFo_zj0-MyukSbz_UyMY-9">
          <mxGeometry relative="1" as="geometry" />
        </mxCell>
        <mxCell id="vFo_zj0-MyukSbz_UyMY-1" value="UVM" style="text;html=1;align=center;verticalAlign=middle;whiteSpace=wrap;rounded=0;fontSize=16;fontStyle=1;fillColor=#f5f5f5;fontColor=#333333;strokeColor=#666666;" vertex="1" parent="1">
          <mxGeometry x="230" y="150" width="90" height="40" as="geometry" />
        </mxCell>
        <mxCell id="vFo_zj0-MyukSbz_UyMY-11" value="" style="group;align=center;" vertex="1" connectable="0" parent="1">
          <mxGeometry x="360" y="160" width="140" height="230" as="geometry" />
        </mxCell>
        <mxCell id="vFo_zj0-MyukSbz_UyMY-2" value="my_agent.sv" style="text;html=1;align=center;verticalAlign=middle;whiteSpace=wrap;rounded=0;fontStyle=1;fillColor=#f5f5f5;fontColor=#333333;strokeColor=#666666;" vertex="1" parent="vFo_zj0-MyukSbz_UyMY-11">
          <mxGeometry width="140" height="20" as="geometry" />
        </mxCell>
        <mxCell id="vFo_zj0-MyukSbz_UyMY-3" value="my_driver.sv" style="text;html=1;align=center;verticalAlign=middle;whiteSpace=wrap;rounded=0;fontStyle=1;fillColor=#f5f5f5;fontColor=#333333;strokeColor=#666666;" vertex="1" parent="vFo_zj0-MyukSbz_UyMY-11">
          <mxGeometry y="30" width="140" height="20" as="geometry" />
        </mxCell>
        <mxCell id="vFo_zj0-MyukSbz_UyMY-4" value="my_env.sv" style="text;html=1;align=center;verticalAlign=middle;whiteSpace=wrap;rounded=0;fontStyle=1;fillColor=#f5f5f5;fontColor=#333333;strokeColor=#666666;" vertex="1" parent="vFo_zj0-MyukSbz_UyMY-11">
          <mxGeometry y="60" width="140" height="20" as="geometry" />
        </mxCell>
        <mxCell id="vFo_zj0-MyukSbz_UyMY-5" value="my_model.sv" style="text;html=1;align=center;verticalAlign=middle;whiteSpace=wrap;rounded=0;fontStyle=1;fillColor=#f5f5f5;fontColor=#333333;strokeColor=#666666;" vertex="1" parent="vFo_zj0-MyukSbz_UyMY-11">
          <mxGeometry y="90" width="140" height="20" as="geometry" />
        </mxCell>
        <mxCell id="vFo_zj0-MyukSbz_UyMY-6" value="my_monitor.sv" style="text;html=1;align=center;verticalAlign=middle;whiteSpace=wrap;rounded=0;fontStyle=1;fillColor=#f5f5f5;fontColor=#333333;strokeColor=#666666;" vertex="1" parent="vFo_zj0-MyukSbz_UyMY-11">
          <mxGeometry y="120" width="140" height="20" as="geometry" />
        </mxCell>
        <mxCell id="vFo_zj0-MyukSbz_UyMY-7" value="my_scoreboard.sv" style="text;html=1;align=center;verticalAlign=middle;whiteSpace=wrap;rounded=0;fontStyle=1;fillColor=#f5f5f5;fontColor=#333333;strokeColor=#666666;" vertex="1" parent="vFo_zj0-MyukSbz_UyMY-11">
          <mxGeometry y="150" width="140" height="20" as="geometry" />
        </mxCell>
        <mxCell id="vFo_zj0-MyukSbz_UyMY-8" value="my_transaction.sv" style="text;html=1;align=center;verticalAlign=middle;whiteSpace=wrap;rounded=0;fontStyle=1;fillColor=#f5f5f5;fontColor=#333333;strokeColor=#666666;" vertex="1" parent="vFo_zj0-MyukSbz_UyMY-11">
          <mxGeometry y="180" width="140" height="20" as="geometry" />
        </mxCell>
        <mxCell id="vFo_zj0-MyukSbz_UyMY-9" value="top_tb.sv" style="text;html=1;align=center;verticalAlign=middle;whiteSpace=wrap;rounded=0;fontStyle=1;fillColor=#f5f5f5;fontColor=#333333;strokeColor=#666666;" vertex="1" parent="vFo_zj0-MyukSbz_UyMY-11">
          <mxGeometry y="210" width="140" height="20" as="geometry" />
        </mxCell>
      </root>
    </mxGraphModel>
  </diagram>
</mxfile>
